<?xml version="1.0" standalone="no"?>
<svg xmlns="http://www.w3.org/2000/svg" width="500" height="500"><defs><clipPath id="clip-path-dot-color"><path d="M 18 162v 16h 8a 8 8, 0, 0, 0, 0 -16" transform="rotate(180,26,170)"/><path d="M 18 194v 16h 16v -8a 8 8, 0, 0, 0, -8 -8" transform="rotate(-90,26,202)"/><rect x="18" y="210" width="16" height="16" transform="rotate(0,26,218)"/><path d="M 18 226v 16h 16v -8a 8 8, 0, 0, 0, -8 -8" transform="rotate(180,26,234)"/><path d="M 18 290v 16h 16v -8a 8 8, 0, 0, 0, -8 -8" transform="rotate(-90,26,298)"/><rect x="18" y="306" width="16" height="16" transform="rotate(0,26,314)"/><path d="M 18 322v 16h 8a 8 8, 0, 0, 0, 0 -16" transform="rotate(90,26,330)"/><path d="M 34 146v 16h 8a 8 8, 0, 0, 0, 0 -16" transform="rotate(-90,42,154)"/><rect x="34" y="162" width="16" height="16" transform="rotate(0,42,170)"/><rect x="34" y="178" width="16" height="16" transform="rotate(0,42,186)"/><rect x="34" y="194" width="16" height="16" transform="rotate(0,42,202)"/><rect x="34" y="210" width="16" height="16" transform="rotate(0,42,218)"/><path d="M 34 226v 16h 16v -8a 8 8, 0, 0, 0, -8 -8" transform="rotate(90,42,234)"/><circle cx="42" cy="266" r="8" transform="rotate(0,42,266)"/><path d="M 34 290v 16h 16v -8a 8 8, 0, 0, 0, -8 -8" transform="rotate(0,42,298)"/><path d="M 34 306v 16h 16v -8a 8 8, 0, 0, 0, -8 -8" transform="rotate(90,42,314)"/><path d="M 34 338v 16h 8a 8 8, 0, 0, 0, 0 -16" transform="rotate(180,42,346)"/><rect x="50" y="178" width="16" height="16" transform="rotate(0,58,186)"/><path d="M 50 242v 16h 8a 8 8, 0, 0, 0, 0 -16" transform="rotate(180,58,250)"/><path d="M 50 338v 16h 8a 8 8, 0, 0, 0, 0 -16" transform="rotate(0,58,346)"/><path d="M 66 146v 16h 16v -8a 8 8, 0, 0, 0, -8 -8" transform="rotate(-90,74,154)"/><rect x="66" y="162" width="16" height="16" transform="rotate(0,74,170)"/><rect x="66" y="178" width="16" height="16" transform="rotate(0,74,186)"/><path d="M 66 194v 16h 16v -8a 8 8, 0, 0, 0, -8 -8" transform="rotate(180,74,202)"/><path d="M 66 226v 16h 8a 8 8, 0, 0, 0, 0 -16" transform="rotate(-90,74,234)"/><path d="M 66 242v 16h 16v -8a 8 8, 0, 0, 0, -8 -8" transform="rotate(90,74,250)"/><path d="M 66 274v 16h 16v -8a 8 8, 0, 0, 0, -8 -8" transform="rotate(-90,74,282)"/><path d="M 66 290v 16h 16v -8a 8 8, 0, 0, 0, -8 -8" transform="rotate(180,74,298)"/><path d="M 66 322v 16h 8a 8 8, 0, 0, 0, 0 -16" transform="rotate(180,74,330)"/><path d="M 82 146v 16h 16v -8a 8 8, 0, 0, 0, -8 -8" transform="rotate(0,90,154)"/><rect x="82" y="162" width="16" height="16" transform="rotate(0,90,170)"/><rect x="82" y="178" width="16" height="16" transform="rotate(0,90,186)"/><rect x="82" y="194" width="16" height="16" transform="rotate(0,90,202)"/><path d="M 82 210v 16h 8a 8 8, 0, 0, 0, 0 -16" transform="rotate(90,90,218)"/><path d="M 82 274v 16h 16v -8a 8 8, 0, 0, 0, -8 -8" transform="rotate(0,90,282)"/><rect x="82" y="290" width="16" height="16" transform="rotate(0,90,298)"/><path d="M 82 322v 16h 8a 8 8, 0, 0, 0, 0 -16" transform="rotate(0,90,330)"/><path d="M 98 194v 16h 8a 8 8, 0, 0, 0, 0 -16" transform="rotate(0,106,202)"/><circle cx="106" cy="234" r="8" transform="rotate(0,106,234)"/><path d="M 98 290v 16h 16v -8a 8 8, 0, 0, 0, -8 -8" transform="rotate(0,106,298)"/><path d="M 98 306v 16h 16v -8a 8 8, 0, 0, 0, -8 -8" transform="rotate(180,106,314)"/><path d="M 98 338v 16h 8a 8 8, 0, 0, 0, 0 -16" transform="rotate(180,106,346)"/><path d="M 114 146v 16h 8a 8 8, 0, 0, 0, 0 -16" transform="rotate(180,122,154)"/><path d="M 114 178v 16h 8a 8 8, 0, 0, 0, 0 -16" transform="rotate(180,122,186)"/><circle cx="122" cy="218" r="8" transform="rotate(0,122,218)"/><path d="M 114 242v 16h 8a 8 8, 0, 0, 0, 0 -16" transform="rotate(180,122,250)"/><circle cx="122" cy="282" r="8" transform="rotate(0,122,282)"/><path d="M 114 306v 16h 8a 8 8, 0, 0, 0, 0 -16" transform="rotate(0,122,314)"/><rect x="114" y="338" width="16" height="16" transform="rotate(0,122,346)"/><rect x="130" y="146" width="16" height="16" transform="rotate(0,138,154)"/><rect x="130" y="162" width="16" height="16" transform="rotate(0,138,170)"/><rect x="130" y="178" width="16" height="16" transform="rotate(0,138,186)"/><path d="M 130 194v 16h 8a 8 8, 0, 0, 0, 0 -16" transform="rotate(90,138,202)"/><rect x="130" y="242" width="16" height="16" transform="rotate(0,138,250)"/><path d="M 130 322v 16h 16v -8a 8 8, 0, 0, 0, -8 -8" transform="rotate(-90,138,330)"/><rect x="130" y="338" width="16" height="16" transform="rotate(0,138,346)"/><path d="M 146 34v 16h 8a 8 8, 0, 0, 0, 0 -16" transform="rotate(180,154,42)"/><path d="M 146 66v 16h 8a 8 8, 0, 0, 0, 0 -16" transform="rotate(-90,154,74)"/><rect x="146" y="82" width="16" height="16" transform="rotate(0,154,90)"/><rect x="146" y="98" width="16" height="16" transform="rotate(0,154,106)"/><path d="M 146 114v 16h 8a 8 8, 0, 0, 0, 0 -16" transform="rotate(90,154,122)"/><path d="M 146 146v 16h 8a 8 8, 0, 0, 0, 0 -16" transform="rotate(0,154,154)"/><circle cx="154" cy="218" r="8" transform="rotate(0,154,218)"/><path d="M 146 242v 16h 16v -8a 8 8, 0, 0, 0, -8 -8" transform="rotate(0,154,250)"/><path d="M 146 258v 16h 16v -8a 8 8, 0, 0, 0, -8 -8" transform="rotate(180,154,266)"/><path d="M 146 306v 16h 8a 8 8, 0, 0, 0, 0 -16" transform="rotate(-90,154,314)"/><rect x="146" y="322" width="16" height="16" transform="rotate(0,154,330)"/><rect x="146" y="338" width="16" height="16" transform="rotate(0,154,346)"/><rect x="146" y="354" width="16" height="16" transform="rotate(0,154,362)"/><path d="M 146 370v 16h 8a 8 8, 0, 0, 0, 0 -16" transform="rotate(90,154,378)"/><path d="M 146 402v 16h 16v -8a 8 8, 0, 0, 0, -8 -8" transform="rotate(-90,154,410)"/><path d="M 146 418v 16h 16v -8a 8 8, 0, 0, 0, -8 -8" transform="rotate(180,154,426)"/><path d="M 146 450v 16h 8a 8 8, 0, 0, 0, 0 -16" transform="rotate(180,154,458)"/><path d="M 162 34v 16h 8a 8 8, 0, 0, 0, 0 -16" transform="rotate(0,170,42)"/><path d="M 162 82v 16h 16v -8a 8 8, 0, 0, 0, -8 -8" transform="rotate(0,170,90)"/><rect x="162" y="98" width="16" height="16" transform="rotate(0,170,106)"/><path d="M 162 178v 16h 8a 8 8, 0, 0, 0, 0 -16" transform="rotate(180,170,186)"/><circle cx="170" cy="234" r="8" transform="rotate(0,170,234)"/><rect x="162" y="258" width="16" height="16" transform="rotate(0,170,266)"/><path d="M 162 338v 16h 8a 8 8, 0, 0, 0, 0 -16" transform="rotate(0,170,346)"/><path d="M 162 386v 16h 8a 8 8, 0, 0, 0, 0 -16" transform="rotate(-90,170,394)"/><rect x="162" y="402" width="16" height="16" transform="rotate(0,170,410)"/><rect x="162" y="418" width="16" height="16" transform="rotate(0,170,426)"/><rect x="162" y="434" width="16" height="16" transform="rotate(0,170,442)"/><path d="M 162 450v 16h 16v -8a 8 8, 0, 0, 0, -8 -8" transform="rotate(90,170,458)"/><circle cx="186" cy="26" r="8" transform="rotate(0,186,26)"/><rect x="178" y="98" width="16" height="16" transform="rotate(0,186,106)"/><path d="M 178 114v 16h 8a 8 8, 0, 0, 0, 0 -16" transform="rotate(90,186,122)"/><path d="M 178 162v 16h 16v -8a 8 8, 0, 0, 0, -8 -8" transform="rotate(-90,186,170)"/><path d="M 178 178v 16h 16v -8a 8 8, 0, 0, 0, -8 -8" transform="rotate(90,186,186)"/><circle cx="186" cy="218" r="8" transform="rotate(0,186,218)"/><path d="M 178 242v 16h 8a 8 8, 0, 0, 0, 0 -16" transform="rotate(-90,186,250)"/><path d="M 178 258v 16h 16v -8a 8 8, 0, 0, 0, -8 -8" transform="rotate(90,186,266)"/><circle cx="186" cy="314" r="8" transform="rotate(0,186,314)"/><path d="M 178 354v 16h 8a 8 8, 0, 0, 0, 0 -16" transform="rotate(-90,186,362)"/><path d="M 178 370v 16h 8a 8 8, 0, 0, 0, 0 -16" transform="rotate(90,186,378)"/><path d="M 178 434v 16h 8a 8 8, 0, 0, 0, 0 -16" transform="rotate(0,186,442)"/><path d="M 194 34v 16h 16v -8a 8 8, 0, 0, 0, -8 -8" transform="rotate(-90,202,42)"/><rect x="194" y="50" width="16" height="16" transform="rotate(0,202,58)"/><rect x="194" y="66" width="16" height="16" transform="rotate(0,202,74)"/><rect x="194" y="82" width="16" height="16" transform="rotate(0,202,90)"/><path d="M 194 98v 16h 16v -8a 8 8, 0, 0, 0, -8 -8" transform="rotate(90,202,106)"/><path d="M 194 146v 16h 16v -8a 8 8, 0, 0, 0, -8 -8" transform="rotate(-90,202,154)"/><rect x="194" y="162" width="16" height="16" transform="rotate(0,202,170)"/><circle cx="202" cy="202" r="8" transform="rotate(0,202,202)"/><path d="M 194 226v 16h 8a 8 8, 0, 0, 0, 0 -16" transform="rotate(180,202,234)"/><path d="M 194 274v 16h 8a 8 8, 0, 0, 0, 0 -16" transform="rotate(-90,202,282)"/><path d="M 194 290v 16h 8a 8 8, 0, 0, 0, 0 -16" transform="rotate(90,202,298)"/><path d="M 194 386v 16h 8a 8 8, 0, 0, 0, 0 -16" transform="rotate(-90,202,394)"/><rect x="194" y="402" width="16" height="16" transform="rotate(0,202,410)"/><path d="M 194 418v 16h 16v -8a 8 8, 0, 0, 0, -8 -8" transform="rotate(180,202,426)"/><circle cx="202" cy="474" r="8" transform="rotate(0,202,474)"/><path d="M 210 18v 16h 16v -8a 8 8, 0, 0, 0, -8 -8" transform="rotate(-90,218,26)"/><rect x="210" y="34" width="16" height="16" transform="rotate(0,218,42)"/><path d="M 210 66v 16h 8a 8 8, 0, 0, 0, 0 -16" transform="rotate(0,218,74)"/><path d="M 210 114v 16h 8a 8 8, 0, 0, 0, 0 -16" transform="rotate(-90,218,122)"/><rect x="210" y="130" width="16" height="16" transform="rotate(0,218,138)"/><rect x="210" y="146" width="16" height="16" transform="rotate(0,218,154)"/><path d="M 210 162v 16h 16v -8a 8 8, 0, 0, 0, -8 -8" transform="rotate(90,218,170)"/><path d="M 210 210v 16h 8a 8 8, 0, 0, 0, 0 -16" transform="rotate(-90,218,218)"/><rect x="210" y="226" width="16" height="16" transform="rotate(0,218,234)"/><path d="M 210 242v 16h 8a 8 8, 0, 0, 0, 0 -16" transform="rotate(90,218,250)"/><path d="M 210 322v 16h 8a 8 8, 0, 0, 0, 0 -16" transform="rotate(-90,218,330)"/><rect x="210" y="338" width="16" height="16" transform="rotate(0,218,346)"/><rect x="210" y="354" width="16" height="16" transform="rotate(0,218,362)"/><path d="M 210 370v 16h 16v -8a 8 8, 0, 0, 0, -8 -8" transform="rotate(180,218,378)"/><path d="M 210 418v 16h 8a 8 8, 0, 0, 0, 0 -16" transform="rotate(0,218,426)"/><circle cx="218" cy="458" r="8" transform="rotate(0,218,458)"/><rect x="226" y="18" width="16" height="16" transform="rotate(0,234,26)"/><rect x="226" y="34" width="16" height="16" transform="rotate(0,234,42)"/><path d="M 226 50v 16h 8a 8 8, 0, 0, 0, 0 -16" transform="rotate(90,234,58)"/><path d="M 226 82v 16h 8a 8 8, 0, 0, 0, 0 -16" transform="rotate(180,234,90)"/><path d="M 226 178v 16h 16v -8a 8 8, 0, 0, 0, -8 -8" transform="rotate(-90,234,186)"/><path d="M 226 194v 16h 8a 8 8, 0, 0, 0, 0 -16" transform="rotate(90,234,202)"/><path d="M 226 226v 16h 8a 8 8, 0, 0, 0, 0 -16" transform="rotate(0,234,234)"/><path d="M 226 290v 16h 16v -8a 8 8, 0, 0, 0, -8 -8" transform="rotate(-90,234,298)"/><path d="M 226 306v 16h 8a 8 8, 0, 0, 0, 0 -16" transform="rotate(90,234,314)"/><path d="M 226 370v 16h 8a 8 8, 0, 0, 0, 0 -16" transform="rotate(0,234,378)"/><circle cx="234" cy="410" r="8" transform="rotate(0,234,410)"/><circle cx="234" cy="442" r="8" transform="rotate(0,234,442)"/><path d="M 226 466v 16h 8a 8 8, 0, 0, 0, 0 -16" transform="rotate(180,234,474)"/><rect x="242" y="18" width="16" height="16" transform="rotate(0,250,26)"/><path d="M 242 66v 16h 16v -8a 8 8, 0, 0, 0, -8 -8" transform="rotate(-90,250,74)"/><rect x="242" y="82" width="16" height="16" transform="rotate(0,250,90)"/><circle cx="250" cy="122" r="8" transform="rotate(0,250,122)"/><path d="M 242 162v 16h 8a 8 8, 0, 0, 0, 0 -16" transform="rotate(-90,250,170)"/><rect x="242" y="178" width="16" height="16" transform="rotate(0,250,186)"/><circle cx="250" cy="266" r="8" transform="rotate(0,250,266)"/><rect x="242" y="290" width="16" height="16" transform="rotate(0,250,298)"/><path d="M 242 322v 16h 16v -8a 8 8, 0, 0, 0, -8 -8" transform="rotate(-90,250,330)"/><path d="M 242 338v 16h 16v -8a 8 8, 0, 0, 0, -8 -8" transform="rotate(180,250,346)"/><circle cx="250" cy="394" r="8" transform="rotate(0,250,394)"/><path d="M 242 418v 16h 8a 8 8, 0, 0, 0, 0 -16" transform="rotate(180,250,426)"/><path d="M 242 466v 16h 8a 8 8, 0, 0, 0, 0 -16" transform="rotate(0,250,474)"/><rect x="258" y="18" width="16" height="16" transform="rotate(0,266,26)"/><path d="M 258 34v 16h 8a 8 8, 0, 0, 0, 0 -16" transform="rotate(90,266,42)"/><rect x="258" y="66" width="16" height="16" transform="rotate(0,266,74)"/><rect x="258" y="82" width="16" height="16" transform="rotate(0,266,90)"/><path d="M 258 98v 16h 8a 8 8, 0, 0, 0, 0 -16" transform="rotate(90,266,106)"/><path d="M 258 130v 16h 8a 8 8, 0, 0, 0, 0 -16" transform="rotate(-90,266,138)"/><path d="M 258 146v 16h 16v -8a 8 8, 0, 0, 0, -8 -8" transform="rotate(180,266,154)"/><path d="M 258 178v 16h 16v -8a 8 8, 0, 0, 0, -8 -8" transform="rotate(0,266,186)"/><path d="M 258 194v 16h 16v -8a 8 8, 0, 0, 0, -8 -8" transform="rotate(180,266,202)"/><path d="M 258 242v 16h 8a 8 8, 0, 0, 0, 0 -16" transform="rotate(180,266,250)"/><rect x="258" y="290" width="16" height="16" transform="rotate(0,266,298)"/><rect x="258" y="306" width="16" height="16" transform="rotate(0,266,314)"/><rect x="258" y="322" width="16" height="16" transform="rotate(0,266,330)"/><rect x="258" y="338" width="16" height="16" transform="rotate(0,266,346)"/><path d="M 258 354v 16h 8a 8 8, 0, 0, 0, 0 -16" transform="rotate(90,266,362)"/><path d="M 258 402v 16h 8a 8 8, 0, 0, 0, 0 -16" transform="rotate(-90,266,410)"/><rect x="258" y="418" width="16" height="16" transform="rotate(0,266,426)"/><path d="M 258 434v 16h 8a 8 8, 0, 0, 0, 0 -16" transform="rotate(90,266,442)"/><rect x="274" y="18" width="16" height="16" transform="rotate(0,282,26)"/><rect x="274" y="66" width="16" height="16" transform="rotate(0,282,74)"/><circle cx="282" cy="122" r="8" transform="rotate(0,282,122)"/><rect x="274" y="146" width="16" height="16" transform="rotate(0,282,154)"/><path d="M 274 162v 16h 8a 8 8, 0, 0, 0, 0 -16" transform="rotate(90,282,170)"/><rect x="274" y="194" width="16" height="16" transform="rotate(0,282,202)"/><path d="M 274 226v 16h 16v -8a 8 8, 0, 0, 0, -8 -8" transform="rotate(-90,282,234)"/><rect x="274" y="242" width="16" height="16" transform="rotate(0,282,250)"/><rect x="274" y="258" width="16" height="16" transform="rotate(0,282,266)"/><rect x="274" y="274" width="16" height="16" transform="rotate(0,282,282)"/><path d="M 274 290v 16h 16v -8a 8 8, 0, 0, 0, -8 -8" transform="rotate(90,282,298)"/><rect x="274" y="338" width="16" height="16" transform="rotate(0,282,346)"/><circle cx="282" cy="394" r="8" transform="rotate(0,282,394)"/><rect x="274" y="418" width="16" height="16" transform="rotate(0,282,426)"/><circle cx="282" cy="458" r="8" transform="rotate(0,282,458)"/><rect x="290" y="18" width="16" height="16" transform="rotate(0,298,26)"/><rect x="290" y="66" width="16" height="16" transform="rotate(0,298,74)"/><rect x="290" y="82" width="16" height="16" transform="rotate(0,298,90)"/><path d="M 290 98v 16h 8a 8 8, 0, 0, 0, 0 -16" transform="rotate(90,298,106)"/><path d="M 290 130v 16h 8a 8 8, 0, 0, 0, 0 -16" transform="rotate(-90,298,138)"/><rect x="290" y="146" width="16" height="16" transform="rotate(0,298,154)"/><path d="M 290 194v 16h 8a 8 8, 0, 0, 0, 0 -16" transform="rotate(0,298,202)"/><path d="M 290 226v 16h 16v -8a 8 8, 0, 0, 0, -8 -8" transform="rotate(0,298,234)"/><rect x="290" y="242" width="16" height="16" transform="rotate(0,298,250)"/><path d="M 290 274v 16h 8a 8 8, 0, 0, 0, 0 -16" transform="rotate(0,298,282)"/><path d="M 290 306v 16h 8a 8 8, 0, 0, 0, 0 -16" transform="rotate(180,298,314)"/><rect x="290" y="338" width="16" height="16" transform="rotate(0,298,346)"/><path d="M 290 402v 16h 8a 8 8, 0, 0, 0, 0 -16" transform="rotate(-90,298,410)"/><path d="M 290 418v 16h 16v -8a 8 8, 0, 0, 0, -8 -8" transform="rotate(90,298,426)"/><rect x="306" y="18" width="16" height="16" transform="rotate(0,314,26)"/><rect x="306" y="34" width="16" height="16" transform="rotate(0,314,42)"/><rect x="306" y="50" width="16" height="16" transform="rotate(0,314,58)"/><rect x="306" y="66" width="16" height="16" transform="rotate(0,314,74)"/><rect x="306" y="82" width="16" height="16" transform="rotate(0,314,90)"/><circle cx="314" cy="122" r="8" transform="rotate(0,314,122)"/><rect x="306" y="146" width="16" height="16" transform="rotate(0,314,154)"/><rect x="306" y="162" width="16" height="16" transform="rotate(0,314,170)"/><path d="M 306 178v 16h 8a 8 8, 0, 0, 0, 0 -16" transform="rotate(90,314,186)"/><path d="M 306 242v 16h 16v -8a 8 8, 0, 0, 0, -8 -8" transform="rotate(0,314,250)"/><path d="M 306 258v 16h 8a 8 8, 0, 0, 0, 0 -16" transform="rotate(90,314,266)"/><path d="M 306 290v 16h 8a 8 8, 0, 0, 0, 0 -16" transform="rotate(-90,314,298)"/><path d="M 306 306v 16h 16v -8a 8 8, 0, 0, 0, -8 -8" transform="rotate(90,314,314)"/><path d="M 306 338v 16h 8a 8 8, 0, 0, 0, 0 -16" transform="rotate(0,314,346)"/><path d="M 306 386v 16h 8a 8 8, 0, 0, 0, 0 -16" transform="rotate(180,314,394)"/><path d="M 306 434v 16h 8a 8 8, 0, 0, 0, 0 -16" transform="rotate(180,314,442)"/><circle cx="314" cy="474" r="8" transform="rotate(0,314,474)"/><rect x="322" y="18" width="16" height="16" transform="rotate(0,330,26)"/><rect x="322" y="34" width="16" height="16" transform="rotate(0,330,42)"/><rect x="322" y="66" width="16" height="16" transform="rotate(0,330,74)"/><rect x="322" y="82" width="16" height="16" transform="rotate(0,330,90)"/><path d="M 322 146v 16h 8a 8 8, 0, 0, 0, 0 -16" transform="rotate(0,330,154)"/><circle cx="330" cy="218" r="8" transform="rotate(0,330,218)"/><path d="M 322 354v 16h 16v -8a 8 8, 0, 0, 0, -8 -8" transform="rotate(-90,330,362)"/><rect x="322" y="370" width="16" height="16" transform="rotate(0,330,378)"/><rect x="322" y="386" width="16" height="16" transform="rotate(0,330,394)"/><rect x="322" y="434" width="16" height="16" transform="rotate(0,330,442)"/><path d="M 338 18v 16h 16v -8a 8 8, 0, 0, 0, -8 -8" transform="rotate(0,346,26)"/><rect x="338" y="34" width="16" height="16" transform="rotate(0,346,42)"/><rect x="338" y="50" width="16" height="16" transform="rotate(0,346,58)"/><rect x="338" y="66" width="16" height="16" transform="rotate(0,346,74)"/><rect x="338" y="82" width="16" height="16" transform="rotate(0,346,90)"/><rect x="338" y="98" width="16" height="16" transform="rotate(0,346,106)"/><path d="M 338 114v 16h 8a 8 8, 0, 0, 0, 0 -16" transform="rotate(90,346,122)"/><circle cx="346" cy="170" r="8" transform="rotate(0,346,170)"/><circle cx="346" cy="202" r="8" transform="rotate(0,346,202)"/><path d="M 338 258v 16h 16v -8a 8 8, 0, 0, 0, -8 -8" transform="rotate(-90,346,266)"/><rect x="338" y="274" width="16" height="16" transform="rotate(0,346,282)"/><path d="M 338 290v 16h 8a 8 8, 0, 0, 0, 0 -16" transform="rotate(90,346,298)"/><path d="M 338 338v 16h 16v -8a 8 8, 0, 0, 0, -8 -8" transform="rotate(-90,346,346)"/><rect x="338" y="354" width="16" height="16" transform="rotate(0,346,362)"/><rect x="338" y="370" width="16" height="16" transform="rotate(0,346,378)"/><rect x="338" y="386" width="16" height="16" transform="rotate(0,346,394)"/><rect x="338" y="402" width="16" height="16" transform="rotate(0,346,410)"/><rect x="338" y="418" width="16" height="16" transform="rotate(0,346,426)"/><rect x="338" y="434" width="16" height="16" transform="rotate(0,346,442)"/><path d="M 338 450v 16h 16v -8a 8 8, 0, 0, 0, -8 -8" transform="rotate(180,346,458)"/><circle cx="362" cy="154" r="8" transform="rotate(0,362,154)"/><path d="M 354 226v 16h 8a 8 8, 0, 0, 0, 0 -16" transform="rotate(180,362,234)"/><rect x="354" y="258" width="16" height="16" transform="rotate(0,362,266)"/><path d="M 354 306v 16h 8a 8 8, 0, 0, 0, 0 -16" transform="rotate(180,362,314)"/><rect x="354" y="338" width="16" height="16" transform="rotate(0,362,346)"/><rect x="354" y="402" width="16" height="16" transform="rotate(0,362,410)"/><rect x="354" y="418" width="16" height="16" transform="rotate(0,362,426)"/><rect x="354" y="434" width="16" height="16" transform="rotate(0,362,442)"/><path d="M 354 450v 16h 16v -8a 8 8, 0, 0, 0, -8 -8" transform="rotate(90,362,458)"/><path d="M 370 162v 16h 8a 8 8, 0, 0, 0, 0 -16" transform="rotate(180,378,170)"/><circle cx="378" cy="202" r="8" transform="rotate(0,378,202)"/><path d="M 370 226v 16h 8a 8 8, 0, 0, 0, 0 -16" transform="rotate(0,378,234)"/><rect x="370" y="258" width="16" height="16" transform="rotate(0,378,266)"/><rect x="370" y="274" width="16" height="16" transform="rotate(0,378,282)"/><rect x="370" y="290" width="16" height="16" transform="rotate(0,378,298)"/><rect x="370" y="306" width="16" height="16" transform="rotate(0,378,314)"/><rect x="370" y="322" width="16" height="16" transform="rotate(0,378,330)"/><rect x="370" y="338" width="16" height="16" transform="rotate(0,378,346)"/><circle cx="378" cy="378" r="8" transform="rotate(0,378,378)"/><rect x="370" y="402" width="16" height="16" transform="rotate(0,378,410)"/><path d="M 370 434v 16h 8a 8 8, 0, 0, 0, 0 -16" transform="rotate(0,378,442)"/><path d="M 386 146v 16h 16v -8a 8 8, 0, 0, 0, -8 -8" transform="rotate(-90,394,154)"/><rect x="386" y="162" width="16" height="16" transform="rotate(0,394,170)"/><path d="M 386 178v 16h 16v -8a 8 8, 0, 0, 0, -8 -8" transform="rotate(180,394,186)"/><rect x="386" y="258" width="16" height="16" transform="rotate(0,394,266)"/><rect x="386" y="290" width="16" height="16" transform="rotate(0,394,298)"/><rect x="386" y="322" width="16" height="16" transform="rotate(0,394,330)"/><rect x="386" y="338" width="16" height="16" transform="rotate(0,394,346)"/><rect x="386" y="402" width="16" height="16" transform="rotate(0,394,410)"/><path d="M 386 418v 16h 8a 8 8, 0, 0, 0, 0 -16" transform="rotate(90,394,426)"/><path d="M 386 450v 16h 16v -8a 8 8, 0, 0, 0, -8 -8" transform="rotate(-90,394,458)"/><path d="M 386 466v 16h 16v -8a 8 8, 0, 0, 0, -8 -8" transform="rotate(180,394,474)"/><rect x="402" y="146" width="16" height="16" transform="rotate(0,410,154)"/><rect x="402" y="162" width="16" height="16" transform="rotate(0,410,170)"/><rect x="402" y="178" width="16" height="16" transform="rotate(0,410,186)"/><path d="M 402 194v 16h 16v -8a 8 8, 0, 0, 0, -8 -8" transform="rotate(180,410,202)"/><circle cx="410" cy="234" r="8" transform="rotate(0,410,234)"/><path d="M 402 258v 16h 16v -8a 8 8, 0, 0, 0, -8 -8" transform="rotate(0,410,266)"/><rect x="402" y="274" width="16" height="16" transform="rotate(0,410,282)"/><rect x="402" y="290" width="16" height="16" transform="rotate(0,410,298)"/><rect x="402" y="306" width="16" height="16" transform="rotate(0,410,314)"/><rect x="402" y="322" width="16" height="16" transform="rotate(0,410,330)"/><rect x="402" y="338" width="16" height="16" transform="rotate(0,410,346)"/><rect x="402" y="354" width="16" height="16" transform="rotate(0,410,362)"/><rect x="402" y="370" width="16" height="16" transform="rotate(0,410,378)"/><rect x="402" y="386" width="16" height="16" transform="rotate(0,410,394)"/><path d="M 402 402v 16h 16v -8a 8 8, 0, 0, 0, -8 -8" transform="rotate(90,410,410)"/><rect x="402" y="450" width="16" height="16" transform="rotate(0,410,458)"/><path d="M 402 466v 16h 16v -8a 8 8, 0, 0, 0, -8 -8" transform="rotate(90,410,474)"/><path d="M 418 146v 16h 16v -8a 8 8, 0, 0, 0, -8 -8" transform="rotate(0,426,154)"/><rect x="418" y="162" width="16" height="16" transform="rotate(0,426,170)"/><rect x="418" y="194" width="16" height="16" transform="rotate(0,426,202)"/><path d="M 418 210v 16h 8a 8 8, 0, 0, 0, 0 -16" transform="rotate(90,426,218)"/><rect x="418" y="274" width="16" height="16" transform="rotate(0,426,282)"/><rect x="418" y="386" width="16" height="16" transform="rotate(0,426,394)"/><rect x="418" y="450" width="16" height="16" transform="rotate(0,426,458)"/><path d="M 434 162v 16h 16v -8a 8 8, 0, 0, 0, -8 -8" transform="rotate(0,442,170)"/><rect x="434" y="178" width="16" height="16" transform="rotate(0,442,186)"/><path d="M 434 194v 16h 16v -8a 8 8, 0, 0, 0, -8 -8" transform="rotate(90,442,202)"/><path d="M 434 274v 16h 8a 8 8, 0, 0, 0, 0 -16" transform="rotate(0,442,282)"/><path d="M 434 338v 16h 16v -8a 8 8, 0, 0, 0, -8 -8" transform="rotate(-90,442,346)"/><path d="M 434 354v 16h 16v -8a 8 8, 0, 0, 0, -8 -8" transform="rotate(180,442,362)"/><path d="M 434 386v 16h 16v -8a 8 8, 0, 0, 0, -8 -8" transform="rotate(0,442,394)"/><rect x="434" y="402" width="16" height="16" transform="rotate(0,442,410)"/><rect x="434" y="418" width="16" height="16" transform="rotate(0,442,426)"/><rect x="434" y="434" width="16" height="16" transform="rotate(0,442,442)"/><rect x="434" y="450" width="16" height="16" transform="rotate(0,442,458)"/><path d="M 434 466v 16h 16v -8a 8 8, 0, 0, 0, -8 -8" transform="rotate(180,442,474)"/><circle cx="458" cy="154" r="8" transform="rotate(0,458,154)"/><path d="M 450 178v 16h 8a 8 8, 0, 0, 0, 0 -16" transform="rotate(0,458,186)"/><circle cx="458" cy="266" r="8" transform="rotate(0,458,266)"/><rect x="450" y="338" width="16" height="16" transform="rotate(0,458,346)"/><path d="M 450 354v 16h 16v -8a 8 8, 0, 0, 0, -8 -8" transform="rotate(90,458,362)"/><rect x="450" y="402" width="16" height="16" transform="rotate(0,458,410)"/><path d="M 450 434v 16h 8a 8 8, 0, 0, 0, 0 -16" transform="rotate(0,458,442)"/><path d="M 450 466v 16h 8a 8 8, 0, 0, 0, 0 -16" transform="rotate(0,458,474)"/><circle cx="474" cy="170" r="8" transform="rotate(0,474,170)"/><circle cx="474" cy="234" r="8" transform="rotate(0,474,234)"/><path d="M 466 338v 16h 8a 8 8, 0, 0, 0, 0 -16" transform="rotate(0,474,346)"/><path d="M 466 386v 16h 8a 8 8, 0, 0, 0, 0 -16" transform="rotate(-90,474,394)"/><path d="M 466 402v 16h 16v -8a 8 8, 0, 0, 0, -8 -8" transform="rotate(90,474,410)"/></clipPath><clipPath id="clip-path-corners-square-color-0-0"><path clip-rule="evenodd" d="M 18 58v 32a 40 40, 0, 0, 0, 40 40h 32a 40 40, 0, 0, 0, 40 -40v -32a 40 40, 0, 0, 0, -40 -40h -32a 40 40, 0, 0, 0, -40 40M 58 34h 32a 24 24, 0, 0, 1, 24 24v 32a 24 24, 0, 0, 1, -24 24h -32a 24 24, 0, 0, 1, -24 -24v -32a 24 24, 0, 0, 1, 24 -24" transform="rotate(0,74,74)"/></clipPath><clipPath id="clip-path-corners-dot-color-0-0"><circle cx="74" cy="74" r="24" transform="rotate(0,74,74)"/></clipPath><clipPath id="clip-path-corners-square-color-1-0"><path clip-rule="evenodd" d="M 370 58v 32a 40 40, 0, 0, 0, 40 40h 32a 40 40, 0, 0, 0, 40 -40v -32a 40 40, 0, 0, 0, -40 -40h -32a 40 40, 0, 0, 0, -40 40M 410 34h 32a 24 24, 0, 0, 1, 24 24v 32a 24 24, 0, 0, 1, -24 24h -32a 24 24, 0, 0, 1, -24 -24v -32a 24 24, 0, 0, 1, 24 -24" transform="rotate(90,426,74)"/></clipPath><clipPath id="clip-path-corners-dot-color-1-0"><circle cx="426" cy="74" r="24" transform="rotate(90,426,74)"/></clipPath><clipPath id="clip-path-corners-square-color-0-1"><path clip-rule="evenodd" d="M 18 410v 32a 40 40, 0, 0, 0, 40 40h 32a 40 40, 0, 0, 0, 40 -40v -32a 40 40, 0, 0, 0, -40 -40h -32a 40 40, 0, 0, 0, -40 40M 58 386h 32a 24 24, 0, 0, 1, 24 24v 32a 24 24, 0, 0, 1, -24 24h -32a 24 24, 0, 0, 1, -24 -24v -32a 24 24, 0, 0, 1, 24 -24" transform="rotate(-90,74,426)"/></clipPath><clipPath id="clip-path-corners-dot-color-0-1"><circle cx="74" cy="426" r="24" transform="rotate(-90,74,426)"/></clipPath></defs><rect x="0" y="0" height="500" width="500" clip-path="url('#clip-path-background-color')" fill="#fff"/><rect x="0" y="0" height="500" width="500" clip-path="url('#clip-path-dot-color')" fill="#285F2F"/><rect x="18" y="18" height="112" width="112" clip-path="url('#clip-path-corners-square-color-0-0')" fill="#285F2F"/><rect x="50" y="50" height="48" width="48" clip-path="url('#clip-path-corners-dot-color-0-0')" fill="#285F2F"/><rect x="370" y="18" height="112" width="112" clip-path="url('#clip-path-corners-square-color-1-0')" fill="#285F2F"/><rect x="402" y="50" height="48" width="48" clip-path="url('#clip-path-corners-dot-color-1-0')" fill="#285F2F"/><rect x="18" y="370" height="112" width="112" clip-path="url('#clip-path-corners-square-color-0-1')" fill="#285F2F"/><rect x="50" y="402" height="48" width="48" clip-path="url('#clip-path-corners-dot-color-0-1')" fill="#285F2F"/></svg>